<svg width="242" height="133" viewBox="0 0 242 133" fill="none" xmlns="http://www.w3.org/2000/svg">
<g opacity="0.2">
<rect x="0.5" y="0.5" width="240.337" height="131.111" stroke="#1E2246"/>
<line x1="223.152" y1="132.111" x2="223.152" y2="0.000244162" stroke="#1E2246"/>
<line x1="204.43" y1="132.111" x2="204.43" y2="0.000244162" stroke="#1E2246"/>
<line x1="185.703" y1="132.111" x2="185.703" y2="0.000244162" stroke="#1E2246"/>
<line x1="166.98" y1="132.111" x2="166.98" y2="0.000244162" stroke="#1E2246"/>
<line x1="148.254" y1="132.111" x2="148.254" y2="0.000244162" stroke="#1E2246"/>
<line x1="129.531" y1="132.111" x2="129.531" y2="0.000244162" stroke="#1E2246"/>
<line x1="110.805" y1="132.111" x2="110.805" y2="0.000244162" stroke="#1E2246"/>
<line x1="92.082" y1="132.111" x2="92.082" y2="0.000244162" stroke="#1E2246"/>
<line x1="73.3555" y1="132.111" x2="73.3555" y2="0.000244162" stroke="#1E2246"/>
<line x1="54.6328" y1="132.111" x2="54.6328" y2="0.000244162" stroke="#1E2246"/>
<line x1="35.9102" y1="132.111" x2="35.9101" y2="0.000244162" stroke="#1E2246"/>
<line x1="17.1836" y1="132.111" x2="17.1836" y2="0.000244162" stroke="#1E2246"/>
<line x1="241.336" y1="19.7446" x2="-0.000839172" y2="19.7446" stroke="#1E2246"/>
<line x1="241.336" y1="38.4688" x2="-0.000839172" y2="38.4688" stroke="#1E2246"/>
<line x1="241.336" y1="57.1934" x2="-0.000839172" y2="57.1934" stroke="#1E2246"/>
<line x1="241.336" y1="75.9175" x2="-0.000839172" y2="75.9175" stroke="#1E2246"/>
<line x1="241.336" y1="94.6426" x2="-0.000839172" y2="94.6426" stroke="#1E2246"/>
<line x1="241.336" y1="113.367" x2="-0.000839172" y2="113.367" stroke="#1E2246"/>
<line x1="241.336" y1="132.091" x2="-0.000839172" y2="132.091" stroke="#1E2246"/>
</g>
<g clip-path="url(#clip0_807_679)">
<path d="M84.9236 97.518H47.5547V43.502H84.9236V97.518ZM51.1877 93.885H81.2906V47.1312H51.184V93.885H51.1877Z" fill="#BD423C"/>
<path d="M85.2769 97.8741H47.1992V43.1455H85.2769V97.8741ZM47.908 97.1653H84.5681V43.8543H47.908V97.1653ZM81.6439 94.2411H50.8322V46.7785H81.6439V94.2411ZM51.541 93.5323H80.9389V47.4873H51.541V93.5323Z" fill="#BD423C"/>
<path d="M76.7205 89.3723H39.3516V35.3525H76.7205V89.3723ZM42.9845 85.7393H73.0912V38.9855H42.9845V85.7393Z" fill="#BD423C"/>
<path d="M77.0777 89.7249H39V35H77.0777V89.7249ZM39.7088 89.0161H76.3689V35.7088H39.7088V89.0198V89.0161ZM73.4447 86.0919H42.633V38.633H73.4447V86.0956V86.0919ZM43.3418 85.3831H72.7359V39.3418H43.3418V85.3868V85.3831Z" fill="#BD423C"/>
<path d="M94.793 43.7988V47.814H104.638V76.8557H109.277V47.814H119.122V43.7988H94.793Z" fill="#BD423C"/>
<path d="M194.144 59.0245L189.487 57.028C187.045 56.0001 184.277 54.8349 184.277 51.855C184.277 49.1015 186.559 47.324 190.095 47.324C192.804 47.324 195.172 48.3037 197.328 50.315L197.528 50.5005L200.022 47.4984L199.862 47.3314C197.346 44.7189 193.784 43.2197 190.099 43.2197C184.013 43.2197 179.597 46.964 179.597 52.1222C179.597 55.9482 181.809 58.7536 186.362 60.6944L191.06 62.7317C194.114 64.101 196.318 65.0919 196.318 68.261C196.318 71.4301 193.799 73.3227 189.746 73.3227C186.596 73.3227 183.315 71.8457 180.974 69.3668L180.781 69.1627L177.953 72.343L178.116 72.5137C181.145 75.6828 185.256 77.4269 189.702 77.4269C196.356 77.4269 201.002 73.5305 201.002 67.9493C201.002 62.7132 197.539 60.4977 194.148 59.0245H194.144Z" fill="#BD423C"/>
<path d="M169.837 43.7988L161.591 68.3465L153.056 43.9732L152.997 43.8025H147.59V76.8557H151.828V58.598C151.828 56.4234 151.642 53.5882 151.475 51.0537L159.799 76.6738L159.854 76.8519H162.979L171.243 51.1056C171.058 53.5994 170.872 56.4345 170.872 58.598V76.8557H175.244V43.7988H169.833H169.837Z" fill="#BD423C"/>
<path d="M140.498 43.7988L133.083 58.7241L125.828 43.7988H120.863L130.775 64.0233V76.8557H135.414V64.0233L145.326 43.7988H140.498Z" fill="#BD423C"/>
<path d="M104.829 84.5073V85.8469H95.8594V84.5073H99.4849V83.8653H96.9133V80.3882H103.782V81.7167H98.6092V82.5368H103.827V83.8653H101.192V84.5073H104.829ZM103.764 88.0586C103.764 89.2276 102.446 89.903 100.298 89.903C98.149 89.903 96.8428 89.2276 96.8428 88.0586C96.8428 86.8897 98.1601 86.2032 100.298 86.2032C102.435 86.2032 103.764 86.8786 103.764 88.0586ZM102.034 88.0586C102.034 87.6467 101.496 87.4909 100.294 87.4909C99.0916 87.4909 98.5646 87.6504 98.5646 88.0586C98.5646 88.4668 99.0916 88.6153 100.294 88.6153C101.496 88.6153 102.034 88.4668 102.034 88.0586Z" fill="#BD423C"/>
<path d="M110.477 85.3607C108.937 85.3607 107.738 84.3291 107.738 82.9263C107.738 81.5236 108.941 80.492 110.477 80.492C112.013 80.492 113.227 81.5125 113.227 82.9263C113.227 84.3402 112.024 85.3607 110.477 85.3607ZM115.694 87.8693C115.694 89.1347 114.355 89.8806 112.292 89.8806C110.228 89.8806 108.9 89.131 108.9 87.8693C108.9 86.6076 110.239 85.858 112.292 85.858C114.344 85.858 115.694 86.6076 115.694 87.8693ZM110.477 83.9394C111.1 83.9394 111.561 83.6017 111.561 82.9263C111.561 82.251 111.097 81.9058 110.477 81.9058C109.857 81.9058 109.401 82.2547 109.401 82.9263C109.401 83.598 109.865 83.9394 110.477 83.9394ZM113.995 87.8693C113.995 87.3757 113.438 87.1753 112.288 87.1753C111.137 87.1753 110.592 87.3757 110.592 87.8693C110.592 88.3628 111.149 88.5632 112.299 88.5632C113.449 88.5632 113.995 88.3628 113.995 87.8693ZM115.576 82.4217V83.2344H116.756V84.6037H115.576V85.6873H113.869V79.9873H115.576V81.0523H116.745V82.4217H115.576Z" fill="#BD423C"/>
<path d="M124.912 80.8188V87.5838H120.055V80.8188H124.912ZM121.728 82.1474V86.2553H123.235V82.1474H121.728ZM127.87 79.9653V89.9032H126.163V79.9653H127.87Z" fill="#BD423C"/>
<path d="M133.743 86.1923C135.387 86.1812 136.388 86.1293 137.461 85.9177L137.609 87.3205C136.355 87.5617 135.123 87.5951 132.93 87.5951H132.043V80.8189H136.878V82.1771H133.739V86.1923H133.743ZM139.751 79.9766V89.9144H138.044V79.9766H139.751Z" fill="#BD423C"/>
<path d="M151.753 79.9541V89.9031H150.046V84.782H148.688C148.51 86.6486 147.475 87.7841 146.105 87.7841C144.61 87.7841 143.504 86.4148 143.504 84.192C143.504 81.9691 144.61 80.6184 146.105 80.6184C147.423 80.6184 148.436 81.6723 148.666 83.4201H150.046V79.9541H151.753ZM147.085 84.192C147.085 82.8115 146.706 82.1695 146.105 82.1695C145.504 82.1695 145.126 82.8115 145.126 84.192C145.126 85.5724 145.504 86.2367 146.105 86.2367C146.706 86.2367 147.085 85.5947 147.085 84.192Z" fill="#BD423C"/>
<path d="M161.044 85.6357C159.126 85.9957 156.914 86.0365 155.292 86.0365L155.133 84.6783H156.049V82.0658H155.374V80.7262H160.662V82.0658H159.987V84.5113C160.302 84.4816 160.629 84.4482 160.926 84.4074L161.041 85.6394L161.044 85.6357ZM158.283 88.3855H163.375V89.7251H156.576V86.5968H158.283V88.3892V88.3855ZM157.682 84.6449C157.912 84.6338 158.124 84.6226 158.358 84.6152V82.0658H157.682V84.6486V84.6449ZM164.31 82.6633V84.0437H163.078V87.2685H161.371V79.9766H163.078V82.6633H164.31Z" fill="#BD423C"/>
<path d="M167.348 80.9266H171.322V87.5023H167.348V80.9266ZM168.929 86.1849H169.749V82.2439H168.929V86.1849ZM175.653 79.9766V89.8513H174.042V85.0234H173.474V89.4505H171.894V80.1139H173.474V83.6763H174.042V79.9766H175.653Z" fill="#BD423C"/>
<path d="M179.465 85.5205C179.465 83.4015 180.044 81.6648 181.057 80.0098L182.226 80.4959C181.35 82.0545 180.971 83.8357 180.971 85.5205C180.971 87.2052 181.35 88.9865 182.226 90.5488L181.057 91.0349C180.044 89.3798 179.465 87.6505 179.465 85.5242V85.5205Z" fill="#BD423C"/>
<path d="M194.345 86.6784H190.679V89.8809H188.972V86.6784H185.391V85.3387H194.349V86.6784H194.345ZM185.769 83.5909C187.836 83.3608 188.645 82.5259 188.823 81.7577H186.159V80.4292H193.547V81.7577H190.924C191.102 82.5259 191.914 83.3608 193.978 83.5909L193.365 84.9194C191.573 84.6968 190.445 84.0251 189.866 83.0973C189.287 84.0251 188.17 84.7005 186.378 84.9194L185.765 83.5909H185.769Z" fill="#BD423C"/>
<path d="M197.488 90.5449C198.364 88.9863 198.743 87.2162 198.743 85.5166C198.743 83.817 198.364 82.0506 197.488 80.492L198.657 80.0059C199.67 81.6609 200.249 83.3976 200.249 85.5166C200.249 87.6355 199.67 89.3722 198.657 91.0273L197.488 90.5411V90.5449Z" fill="#BD423C"/>
</g>
<defs>
<clipPath id="clip0_807_679">
<rect width="162" height="62.874" fill="white" transform="translate(39 35)"/>
</clipPath>
</defs>
</svg>
