<svg width="242" height="133" viewBox="0 0 242 133" fill="none" xmlns="http://www.w3.org/2000/svg">
<g opacity="0.2">
<rect x="0.5" y="0.5" width="240.337" height="131.111" stroke="#1E2246"/>
<line x1="223.152" y1="132.111" x2="223.152" y2="0.000244162" stroke="#1E2246"/>
<line x1="204.43" y1="132.111" x2="204.43" y2="0.000244162" stroke="#1E2246"/>
<line x1="185.703" y1="132.111" x2="185.703" y2="0.000244162" stroke="#1E2246"/>
<line x1="166.98" y1="132.111" x2="166.98" y2="0.000244162" stroke="#1E2246"/>
<line x1="148.254" y1="132.111" x2="148.254" y2="0.000244162" stroke="#1E2246"/>
<line x1="129.531" y1="132.111" x2="129.531" y2="0.000244162" stroke="#1E2246"/>
<line x1="110.805" y1="132.111" x2="110.805" y2="0.000244162" stroke="#1E2246"/>
<line x1="92.082" y1="132.111" x2="92.082" y2="0.000244162" stroke="#1E2246"/>
<line x1="73.3555" y1="132.111" x2="73.3555" y2="0.000244162" stroke="#1E2246"/>
<line x1="54.6328" y1="132.111" x2="54.6328" y2="0.000244162" stroke="#1E2246"/>
<line x1="35.9102" y1="132.111" x2="35.9101" y2="0.000244162" stroke="#1E2246"/>
<line x1="17.1836" y1="132.111" x2="17.1836" y2="0.000244162" stroke="#1E2246"/>
<line x1="241.336" y1="19.7446" x2="-0.000839172" y2="19.7446" stroke="#1E2246"/>
<line x1="241.336" y1="38.4688" x2="-0.000839172" y2="38.4688" stroke="#1E2246"/>
<line x1="241.336" y1="57.1934" x2="-0.000839172" y2="57.1934" stroke="#1E2246"/>
<line x1="241.336" y1="75.9175" x2="-0.000839172" y2="75.9175" stroke="#1E2246"/>
<line x1="241.336" y1="94.6426" x2="-0.000839172" y2="94.6426" stroke="#1E2246"/>
<line x1="241.336" y1="113.367" x2="-0.000839172" y2="113.367" stroke="#1E2246"/>
<line x1="241.336" y1="132.091" x2="-0.000839172" y2="132.091" stroke="#1E2246"/>
</g>
<g clip-path="url(#clip0_807_677)">
<path d="M85.9236 97.518H48.5547V43.502H85.9236V97.518ZM52.1877 93.885H82.2906V47.1312H52.184V93.885H52.1877Z" fill="#1E2246"/>
<path d="M86.2769 97.8741H48.1992V43.1455H86.2769V97.8741ZM48.908 97.1653H85.5681V43.8543H48.908V97.1653ZM82.6439 94.2411H51.8322V46.7785H82.6439V94.2411ZM52.541 93.5323H81.9389V47.4873H52.541V93.5323Z" fill="#1E2246"/>
<path d="M77.7205 89.3723H40.3516V35.3525H77.7205V89.3723ZM43.9845 85.7393H74.0912V38.9855H43.9845V85.7393Z" fill="#1E2246"/>
<path d="M78.0777 89.7249H40V35H78.0777V89.7249ZM40.7088 89.0161H77.3689V35.7088H40.7088V89.0198V89.0161ZM74.4447 86.0919H43.633V38.633H74.4447V86.0956V86.0919ZM44.3418 85.3831H73.7359V39.3418H44.3418V85.3868V85.3831Z" fill="#1E2246"/>
<path d="M95.793 43.7988V47.814H105.638V76.8557H110.277V47.814H120.122V43.7988H95.793Z" fill="#1E2246"/>
<path d="M195.144 59.0245L190.487 57.028C188.045 56.0001 185.277 54.8349 185.277 51.855C185.277 49.1015 187.559 47.324 191.095 47.324C193.804 47.324 196.172 48.3037 198.328 50.315L198.528 50.5005L201.022 47.4984L200.862 47.3314C198.346 44.7189 194.784 43.2197 191.099 43.2197C185.013 43.2197 180.597 46.964 180.597 52.1222C180.597 55.9482 182.809 58.7536 187.362 60.6944L192.06 62.7317C195.114 64.101 197.318 65.0919 197.318 68.261C197.318 71.4301 194.799 73.3227 190.746 73.3227C187.596 73.3227 184.315 71.8457 181.974 69.3668L181.781 69.1627L178.953 72.343L179.116 72.5137C182.145 75.6828 186.256 77.4269 190.702 77.4269C197.356 77.4269 202.002 73.5305 202.002 67.9493C202.002 62.7132 198.539 60.4977 195.148 59.0245H195.144Z" fill="#1E2246"/>
<path d="M170.837 43.7988L162.591 68.3465L154.056 43.9732L153.997 43.8025H148.59V76.8557H152.828V58.598C152.828 56.4234 152.642 53.5882 152.475 51.0537L160.799 76.6738L160.854 76.8519H163.979L172.243 51.1056C172.058 53.5994 171.872 56.4345 171.872 58.598V76.8557H176.244V43.7988H170.833H170.837Z" fill="#1E2246"/>
<path d="M141.498 43.7988L134.083 58.7241L126.828 43.7988H121.863L131.775 64.0233V76.8557H136.414V64.0233L146.326 43.7988H141.498Z" fill="#1E2246"/>
<path d="M105.829 84.5073V85.8469H96.8594V84.5073H100.485V83.8653H97.9133V80.3882H104.782V81.7167H99.6092V82.5368H104.827V83.8653H102.192V84.5073H105.829ZM104.764 88.0586C104.764 89.2276 103.446 89.903 101.298 89.903C99.149 89.903 97.8428 89.2276 97.8428 88.0586C97.8428 86.8897 99.1601 86.2032 101.298 86.2032C103.435 86.2032 104.764 86.8786 104.764 88.0586ZM103.034 88.0586C103.034 87.6467 102.496 87.4909 101.294 87.4909C100.092 87.4909 99.5646 87.6504 99.5646 88.0586C99.5646 88.4668 100.092 88.6153 101.294 88.6153C102.496 88.6153 103.034 88.4668 103.034 88.0586Z" fill="#1E2246"/>
<path d="M111.477 85.3607C109.937 85.3607 108.738 84.3291 108.738 82.9263C108.738 81.5236 109.941 80.492 111.477 80.492C113.013 80.492 114.227 81.5125 114.227 82.9263C114.227 84.3402 113.024 85.3607 111.477 85.3607ZM116.694 87.8693C116.694 89.1347 115.355 89.8806 113.292 89.8806C111.228 89.8806 109.9 89.131 109.9 87.8693C109.9 86.6076 111.239 85.858 113.292 85.858C115.344 85.858 116.694 86.6076 116.694 87.8693ZM111.477 83.9394C112.1 83.9394 112.561 83.6017 112.561 82.9263C112.561 82.251 112.097 81.9058 111.477 81.9058C110.857 81.9058 110.401 82.2547 110.401 82.9263C110.401 83.598 110.865 83.9394 111.477 83.9394ZM114.995 87.8693C114.995 87.3757 114.438 87.1753 113.288 87.1753C112.137 87.1753 111.592 87.3757 111.592 87.8693C111.592 88.3628 112.149 88.5632 113.299 88.5632C114.449 88.5632 114.995 88.3628 114.995 87.8693ZM116.576 82.4217V83.2344H117.756V84.6037H116.576V85.6873H114.869V79.9873H116.576V81.0523H117.745V82.4217H116.576Z" fill="#1E2246"/>
<path d="M125.912 80.8188V87.5838H121.055V80.8188H125.912ZM122.728 82.1474V86.2553H124.235V82.1474H122.728ZM128.87 79.9653V89.9032H127.163V79.9653H128.87Z" fill="#1E2246"/>
<path d="M134.743 86.1923C136.387 86.1812 137.388 86.1293 138.461 85.9177L138.609 87.3205C137.355 87.5617 136.123 87.5951 133.93 87.5951H133.043V80.8189H137.878V82.1771H134.739V86.1923H134.743ZM140.751 79.9766V89.9144H139.044V79.9766H140.751Z" fill="#1E2246"/>
<path d="M152.753 79.9541V89.9031H151.046V84.782H149.688C149.51 86.6486 148.475 87.7841 147.105 87.7841C145.61 87.7841 144.504 86.4148 144.504 84.192C144.504 81.9691 145.61 80.6184 147.105 80.6184C148.423 80.6184 149.436 81.6723 149.666 83.4201H151.046V79.9541H152.753ZM148.085 84.192C148.085 82.8115 147.706 82.1695 147.105 82.1695C146.504 82.1695 146.126 82.8115 146.126 84.192C146.126 85.5724 146.504 86.2367 147.105 86.2367C147.706 86.2367 148.085 85.5947 148.085 84.192Z" fill="#1E2246"/>
<path d="M162.044 85.6357C160.126 85.9957 157.914 86.0365 156.292 86.0365L156.133 84.6783H157.049V82.0658H156.374V80.7262H161.662V82.0658H160.987V84.5113C161.302 84.4816 161.629 84.4482 161.926 84.4074L162.041 85.6394L162.044 85.6357ZM159.283 88.3855H164.375V89.7251H157.576V86.5968H159.283V88.3892V88.3855ZM158.682 84.6449C158.912 84.6338 159.124 84.6226 159.358 84.6152V82.0658H158.682V84.6486V84.6449ZM165.31 82.6633V84.0437H164.078V87.2685H162.371V79.9766H164.078V82.6633H165.31Z" fill="#1E2246"/>
<path d="M168.348 80.9266H172.322V87.5023H168.348V80.9266ZM169.929 86.1849H170.749V82.2439H169.929V86.1849ZM176.653 79.9766V89.8513H175.042V85.0234H174.474V89.4505H172.894V80.1139H174.474V83.6763H175.042V79.9766H176.653Z" fill="#1E2246"/>
<path d="M180.465 85.5205C180.465 83.4015 181.044 81.6648 182.057 80.0098L183.226 80.4959C182.35 82.0545 181.971 83.8357 181.971 85.5205C181.971 87.2052 182.35 88.9865 183.226 90.5488L182.057 91.0349C181.044 89.3798 180.465 87.6505 180.465 85.5242V85.5205Z" fill="#1E2246"/>
<path d="M195.345 86.6784H191.679V89.8809H189.972V86.6784H186.391V85.3387H195.349V86.6784H195.345ZM186.769 83.5909C188.836 83.3608 189.645 82.5259 189.823 81.7577H187.159V80.4292H194.547V81.7577H191.924C192.102 82.5259 192.914 83.3608 194.978 83.5909L194.365 84.9194C192.573 84.6968 191.445 84.0251 190.866 83.0973C190.287 84.0251 189.17 84.7005 187.378 84.9194L186.765 83.5909H186.769Z" fill="#1E2246"/>
<path d="M198.488 90.5449C199.364 88.9863 199.743 87.2162 199.743 85.5166C199.743 83.817 199.364 82.0506 198.488 80.492L199.657 80.0059C200.67 81.6609 201.249 83.3976 201.249 85.5166C201.249 87.6355 200.67 89.3722 199.657 91.0273L198.488 90.5411V90.5449Z" fill="#1E2246"/>
</g>
<defs>
<clipPath id="clip0_807_677">
<rect width="162" height="62.874" fill="white" transform="translate(40 35)"/>
</clipPath>
</defs>
</svg>
