<svg width="199" height="77" viewBox="0 0 199 77" fill="none" xmlns="http://www.w3.org/2000/svg">
<g clip-path="url(#clip0_805_1497)">
<path d="M56.4155 76.564H10.5117V10.4121H56.4155V76.564ZM14.9745 72.1148H51.9528V14.8568H14.9699V72.1148H14.9745Z" fill="#EEF1F6"/>
<path d="M56.8487 77.0001H10.0742V9.97559H56.8487V77.0001ZM10.9449 76.1321H55.978V10.8436H10.9449V76.1321ZM52.3859 72.5509H14.537V14.4248H52.3859V72.5509ZM15.4076 71.6828H51.5198V15.2928H15.4076V71.6828Z" fill="#EEF1F6"/>
<path d="M46.3374 66.5881H0.433594V0.431641H46.3374V66.5881ZM4.89634 62.1389H41.8792V4.88085H4.89634V62.1389Z" fill="#EEF1F6"/>
<path d="M46.7745 67.02H0V0H46.7745V67.02ZM0.870668 66.1519H45.9038V0.868028H0.870668V66.1565V66.1519ZM42.3117 62.5707H4.46274V4.44921H42.3117V62.5753V62.5707ZM5.33341 61.7027H41.4411V5.31724H5.33341V61.7073V61.7027Z" fill="#EEF1F6"/>
<path d="M68.5352 10.7754V15.6927H80.6288V51.2591H86.3269V15.6927H98.4205V10.7754H68.5352Z" fill="#EEF1F6"/>
<path d="M190.58 29.4221L184.859 26.977C181.86 25.7182 178.459 24.2912 178.459 20.6418C178.459 17.2697 181.262 15.0928 185.607 15.0928C188.934 15.0928 191.843 16.2926 194.491 18.7558L194.737 18.983L197.801 15.3064L197.605 15.1019C194.514 11.9024 190.138 10.0664 185.611 10.0664C178.135 10.0664 172.711 14.652 172.711 20.969C172.711 25.6546 175.428 29.0903 181.021 31.4672L186.792 33.9622C190.544 35.6392 193.251 36.8526 193.251 40.7337C193.251 44.6148 190.156 46.9326 185.178 46.9326C181.308 46.9326 177.278 45.1238 174.402 42.088L174.165 41.8381L170.691 45.7328L170.892 45.9419C174.612 49.823 179.662 51.959 185.124 51.959C193.297 51.959 199.004 47.1871 199.004 40.352C199.004 33.9395 194.751 31.2263 190.585 29.4221H190.58Z" fill="#EEF1F6"/>
<path d="M160.715 10.7754L150.586 40.8382L140.101 10.989L140.028 10.7799H133.387V51.2591H138.592V28.8995C138.592 26.2363 138.365 22.7642 138.159 19.6602L148.384 51.0364L148.452 51.2546H152.291L162.442 19.7238C162.214 22.7778 161.987 26.2499 161.987 28.8995V51.2591H167.356V10.7754H160.71H160.715Z" fill="#EEF1F6"/>
<path d="M124.677 10.7754L115.57 29.054L106.658 10.7754H100.559L112.734 35.5437V51.2591H118.432V35.5437L130.608 10.7754H124.677Z" fill="#EEF1F6"/>
<path d="M80.8616 60.63V62.2706H69.8438V60.63H74.2974V59.8438H71.1384V55.5854H79.5761V57.2124H73.2216V58.2168H79.6308V59.8438H76.3943V60.63H80.8616ZM79.5533 64.9792C79.5533 66.4108 77.935 67.2379 75.2957 67.2379C72.6563 67.2379 71.0517 66.4108 71.0517 64.9792C71.0517 63.5477 72.67 62.7069 75.2957 62.7069C77.9214 62.7069 79.5533 63.534 79.5533 64.9792ZM77.429 64.9792C77.429 64.4748 76.7681 64.2839 75.2911 64.2839C73.8142 64.2839 73.1669 64.4793 73.1669 64.9792C73.1669 65.4791 73.8142 65.6609 75.2911 65.6609C76.7681 65.6609 77.429 65.4791 77.429 64.9792Z" fill="#EEF1F6"/>
<path d="M87.7977 61.6754C85.906 61.6754 84.4336 60.412 84.4336 58.6941C84.4336 56.9762 85.9105 55.7128 87.7977 55.7128C89.685 55.7128 91.1756 56.9626 91.1756 58.6941C91.1756 60.4256 89.6986 61.6754 87.7977 61.6754ZM94.207 64.7476C94.207 66.2973 92.5613 67.2108 90.0268 67.2108C87.4923 67.2108 85.8604 66.2927 85.8604 64.7476C85.8604 63.2024 87.506 62.2844 90.0268 62.2844C92.5477 62.2844 94.207 63.2024 94.207 64.7476ZM87.7977 59.9348C88.5636 59.9348 89.1288 59.5212 89.1288 58.6941C89.1288 57.867 88.559 57.4443 87.7977 57.4443C87.0365 57.4443 86.4758 57.8715 86.4758 58.6941C86.4758 59.5167 87.0456 59.9348 87.7977 59.9348ZM92.1192 64.7476C92.1192 64.1431 91.4354 63.8977 90.0223 63.8977C88.6092 63.8977 87.9391 64.1431 87.9391 64.7476C87.9391 65.352 88.6228 65.5974 90.036 65.5974C91.4491 65.5974 92.1192 65.352 92.1192 64.7476ZM94.0611 58.076V59.0713H95.5107V60.7483H94.0611V62.0753H91.9642V55.0947H94.0611V56.399H95.497V58.076H94.0611Z" fill="#EEF1F6"/>
<path d="M105.533 56.1127V64.3975H99.5664V56.1127H105.533ZM101.622 57.7396V62.7706H103.473V57.7396H101.622ZM109.167 55.0674V67.238H107.07V55.0674H109.167Z" fill="#EEF1F6"/>
<path d="M116.381 62.6933C118.4 62.6797 119.631 62.6161 120.948 62.357L121.131 64.0749C119.59 64.3703 118.076 64.4112 115.382 64.4112H114.293V56.1127H120.233V57.776H116.376V62.6933H116.381ZM123.761 55.0811V67.2516H121.664V55.0811H123.761Z" fill="#EEF1F6"/>
<path d="M138.505 55.0537V67.2379H136.408V60.9663H134.739C134.52 63.2523 133.249 64.6429 131.567 64.6429C129.73 64.6429 128.371 62.9659 128.371 60.2437C128.371 57.5215 129.73 55.8672 131.567 55.8672C133.185 55.8672 134.429 57.1579 134.712 59.2984H136.408V55.0537H138.505ZM132.77 60.2437C132.77 58.5531 132.305 57.7669 131.567 57.7669C130.828 57.7669 130.363 58.5531 130.363 60.2437C130.363 61.9343 130.828 62.7478 131.567 62.7478C132.305 62.7478 132.77 61.9616 132.77 60.2437Z" fill="#EEF1F6"/>
<path d="M149.918 62.0116C147.561 62.4525 144.844 62.5025 142.852 62.5025L142.656 60.8391H143.782V57.6397H142.953V55.9991H149.448V57.6397H148.619V60.6346C149.006 60.5983 149.407 60.5574 149.772 60.5074L149.913 62.0162L149.918 62.0116ZM146.526 65.3792H152.781V67.0199H144.429V63.1887H146.526V65.3838V65.3792ZM145.788 60.7982C146.071 60.7846 146.33 60.771 146.618 60.7619V57.6397H145.788V60.8028V60.7982ZM153.929 58.3714V60.062H152.416V64.0113H150.319V55.0811H152.416V58.3714H153.929Z" fill="#EEF1F6"/>
<path d="M157.656 56.2445H162.538V64.2976H157.656V56.2445ZM159.598 62.6843H160.606V57.8578H159.598V62.6843ZM167.858 55.0811V67.1744H165.88V61.2618H165.182V66.6835H163.24V55.2492H165.182V59.6121H165.88V55.0811H167.858Z" fill="#EEF1F6"/>
<path d="M172.547 61.8709C172.547 59.2759 173.258 57.149 174.502 55.1221L175.938 55.7174C174.863 57.6262 174.398 59.8076 174.398 61.8709C174.398 63.9341 174.863 66.1156 175.938 68.0289L174.502 68.6242C173.258 66.5973 172.547 64.4795 172.547 61.8754V61.8709Z" fill="#EEF1F6"/>
<path d="M190.82 63.2884H186.316V67.2105H184.219V63.2884H179.82V61.6478H190.824V63.2884H190.82ZM180.285 59.5073C182.824 59.2255 183.818 58.203 184.037 57.2622H180.764V55.6353H189.84V57.2622H186.617C186.836 58.203 187.834 59.2255 190.369 59.5073L189.616 61.1343C187.415 60.8616 186.029 60.039 185.318 58.9029C184.607 60.039 183.235 60.8661 181.033 61.1343L180.281 59.5073H180.285Z" fill="#EEF1F6"/>
<path d="M194.684 68.024C195.759 66.1152 196.224 63.9474 196.224 61.866C196.224 59.7845 195.759 57.6213 194.684 55.7125L196.12 55.1172C197.364 57.1441 198.075 59.271 198.075 61.866C198.075 64.461 197.364 66.5879 196.12 68.6148L194.684 68.0194V68.024Z" fill="#EEF1F6"/>
</g>
<defs>
<clipPath id="clip0_805_1497">
<rect width="199" height="77" fill="white"/>
</clipPath>
</defs>
</svg>
