<svg width="242" height="133" viewBox="0 0 242 133" fill="none" xmlns="http://www.w3.org/2000/svg">
<g opacity="0.2">
<rect x="0.5" y="0.5" width="240.337" height="131.111" stroke="#1E2246"/>
<line x1="223.152" y1="132.111" x2="223.152" y2="0.000244162" stroke="#1E2246"/>
<line x1="204.43" y1="132.111" x2="204.43" y2="0.000244162" stroke="#1E2246"/>
<line x1="185.703" y1="132.111" x2="185.703" y2="0.000244162" stroke="#1E2246"/>
<line x1="166.98" y1="132.111" x2="166.98" y2="0.000244162" stroke="#1E2246"/>
<line x1="148.254" y1="132.111" x2="148.254" y2="0.000244162" stroke="#1E2246"/>
<line x1="129.531" y1="132.111" x2="129.531" y2="0.000244162" stroke="#1E2246"/>
<line x1="110.805" y1="132.111" x2="110.805" y2="0.000244162" stroke="#1E2246"/>
<line x1="92.082" y1="132.111" x2="92.082" y2="0.000244162" stroke="#1E2246"/>
<line x1="73.3555" y1="132.111" x2="73.3555" y2="0.000244162" stroke="#1E2246"/>
<line x1="54.6328" y1="132.111" x2="54.6328" y2="0.000244162" stroke="#1E2246"/>
<line x1="35.9102" y1="132.111" x2="35.9101" y2="0.000244162" stroke="#1E2246"/>
<line x1="17.1836" y1="132.111" x2="17.1836" y2="0.000244162" stroke="#1E2246"/>
<line x1="241.336" y1="19.7446" x2="-0.000839172" y2="19.7446" stroke="#1E2246"/>
<line x1="241.336" y1="38.4688" x2="-0.000839172" y2="38.4688" stroke="#1E2246"/>
<line x1="241.336" y1="57.1934" x2="-0.000839172" y2="57.1934" stroke="#1E2246"/>
<line x1="241.336" y1="75.9175" x2="-0.000839172" y2="75.9175" stroke="#1E2246"/>
<line x1="241.336" y1="94.6426" x2="-0.000839172" y2="94.6426" stroke="#1E2246"/>
<line x1="241.336" y1="113.367" x2="-0.000839172" y2="113.367" stroke="#1E2246"/>
<line x1="241.336" y1="132.091" x2="-0.000839172" y2="132.091" stroke="#1E2246"/>
</g>
<g clip-path="url(#clip0_807_678)">
<path d="M87.2461 48.5981V52.909H97.7926V84.0904H102.759V52.909H113.305V48.5981H87.2461Z" fill="#BD423C"/>
<path d="M193.659 64.9481L188.671 62.8058C186.056 61.7034 183.093 60.4522 183.093 57.2518C183.093 54.2968 185.539 52.3858 189.325 52.3858C192.226 52.3858 194.761 53.4359 197.07 55.5963L197.283 55.7954L199.954 52.5729L199.783 52.3959C197.086 49.5897 193.274 47.9805 189.325 47.9805C182.808 47.9805 178.076 51.9996 178.076 57.5395C178.076 61.6491 180.446 64.6585 185.32 66.7424L190.352 68.931C193.623 70.4035 195.985 71.4656 195.985 74.8672C195.985 78.2688 193.288 80.3025 188.946 80.3025C185.571 80.3025 182.059 78.7154 179.551 76.056L179.344 75.8368L176.316 79.2504L176.491 79.4335C179.734 82.8351 184.14 84.7078 188.898 84.7078C196.023 84.7078 201.001 80.5238 201.001 74.5313C201.001 68.9069 197.291 66.5312 193.661 64.9481H193.659Z" fill="#BD423C"/>
<path d="M74.6995 90.7243H45.6484V48.624H74.6995V90.7243ZM48.4717 87.894H71.8762V51.4543H48.4717V87.892V87.894Z" fill="#BD423C"/>
<path d="M74.9758 91.0001H45.375V48.3486H74.9758V91.0001ZM45.9248 90.4489H74.426V48.8998H45.9248V90.4489ZM72.1526 88.1698H48.1982V51.1789H72.1526V88.1698ZM48.748 87.6186H71.6008V51.7301H48.748V87.6166V87.6186Z" fill="#BD423C"/>
<path d="M68.3245 84.3737H39.2734V42.2754H68.3245V84.3737ZM42.0967 81.5434H65.5012V45.1057H42.0967V81.5434Z" fill="#BD423C"/>
<path d="M68.6008 84.6515H39V42H68.6008V84.6515ZM39.5498 84.0983H68.051V42.5512H39.5498V84.0983ZM65.7776 81.8192H41.8232V44.8303H65.7776V81.8192ZM42.373 81.268H65.2258V45.3835H42.373V81.268Z" fill="#BD423C"/>
<path d="M167.621 48.5981L158.788 74.9538L149.648 48.7832L149.584 48.5981H143.793V84.0904H148.334V64.4876C148.334 62.1522 148.135 59.1086 147.955 56.389L156.87 83.8993L156.932 84.0904H160.277L169.128 56.4453C168.929 59.1207 168.731 62.1682 168.731 64.4876V84.0904H173.414V48.5981H167.621Z" fill="#BD423C"/>
<path d="M136.201 48.5981L128.257 64.6204L120.487 48.5981H115.172L125.787 70.3111V84.0904H130.755V70.3111L141.372 48.5981H136.201Z" fill="#BD423C"/>
</g>
<defs>
<clipPath id="clip0_807_678">
<rect width="162" height="49" fill="white" transform="translate(39 42)"/>
</clipPath>
</defs>
</svg>
