<svg width="242" height="133" viewBox="0 0 242 133" fill="none" xmlns="http://www.w3.org/2000/svg">
<g opacity="0.2">
<rect x="0.5" y="0.5" width="240.337" height="131.111" stroke="#1E2246"/>
<line x1="223.152" y1="132.111" x2="223.152" y2="0.000244162" stroke="#1E2246"/>
<line x1="204.43" y1="132.111" x2="204.43" y2="0.000244162" stroke="#1E2246"/>
<line x1="185.703" y1="132.111" x2="185.703" y2="0.000244162" stroke="#1E2246"/>
<line x1="166.98" y1="132.111" x2="166.98" y2="0.000244162" stroke="#1E2246"/>
<line x1="148.254" y1="132.111" x2="148.254" y2="0.000244162" stroke="#1E2246"/>
<line x1="129.531" y1="132.111" x2="129.531" y2="0.000244162" stroke="#1E2246"/>
<line x1="110.805" y1="132.111" x2="110.805" y2="0.000244162" stroke="#1E2246"/>
<line x1="92.082" y1="132.111" x2="92.082" y2="0.000244162" stroke="#1E2246"/>
<line x1="73.3555" y1="132.111" x2="73.3555" y2="0.000244162" stroke="#1E2246"/>
<line x1="54.6328" y1="132.111" x2="54.6328" y2="0.000244162" stroke="#1E2246"/>
<line x1="35.9102" y1="132.111" x2="35.9101" y2="0.000244162" stroke="#1E2246"/>
<line x1="17.1836" y1="132.111" x2="17.1836" y2="0.000244162" stroke="#1E2246"/>
<line x1="241.336" y1="19.7446" x2="-0.000839172" y2="19.7446" stroke="#1E2246"/>
<line x1="241.336" y1="38.4688" x2="-0.000839172" y2="38.4688" stroke="#1E2246"/>
<line x1="241.336" y1="57.1934" x2="-0.000839172" y2="57.1934" stroke="#1E2246"/>
<line x1="241.336" y1="75.9175" x2="-0.000839172" y2="75.9175" stroke="#1E2246"/>
<line x1="241.336" y1="94.6426" x2="-0.000839172" y2="94.6426" stroke="#1E2246"/>
<line x1="241.336" y1="113.367" x2="-0.000839172" y2="113.367" stroke="#1E2246"/>
<line x1="241.336" y1="132.091" x2="-0.000839172" y2="132.091" stroke="#1E2246"/>
</g>
<g clip-path="url(#clip0_807_676)">
<path d="M88.2461 48.5981V52.909H98.7926V84.0904H103.759V52.909H114.305V48.5981H88.2461Z" fill="#1E2246"/>
<path d="M194.659 64.9481L189.671 62.8058C187.056 61.7034 184.093 60.4522 184.093 57.2518C184.093 54.2968 186.539 52.3858 190.325 52.3858C193.226 52.3858 195.761 53.4359 198.07 55.5963L198.283 55.7954L200.954 52.5729L200.783 52.3959C198.086 49.5897 194.274 47.9805 190.325 47.9805C183.808 47.9805 179.076 51.9996 179.076 57.5395C179.076 61.6491 181.446 64.6585 186.32 66.7424L191.352 68.931C194.623 70.4035 196.985 71.4656 196.985 74.8672C196.985 78.2688 194.288 80.3025 189.946 80.3025C186.571 80.3025 183.059 78.7154 180.551 76.056L180.344 75.8368L177.316 79.2504L177.491 79.4335C180.734 82.8351 185.14 84.7078 189.898 84.7078C197.023 84.7078 202.001 80.5238 202.001 74.5313C202.001 68.9069 198.291 66.5312 194.661 64.9481H194.659Z" fill="#1E2246"/>
<path d="M75.6995 90.7243H46.6484V48.624H75.6995V90.7243ZM49.4717 87.894H72.8762V51.4543H49.4717V87.892V87.894Z" fill="#1E2246"/>
<path d="M75.9758 91.0001H46.375V48.3486H75.9758V91.0001ZM46.9248 90.4489H75.426V48.8998H46.9248V90.4489ZM73.1526 88.1698H49.1982V51.1789H73.1526V88.1698ZM49.748 87.6186H72.6008V51.7301H49.748V87.6166V87.6186Z" fill="#1E2246"/>
<path d="M69.3245 84.3737H40.2734V42.2754H69.3245V84.3737ZM43.0967 81.5434H66.5012V45.1057H43.0967V81.5434Z" fill="#1E2246"/>
<path d="M69.6008 84.6515H40V42H69.6008V84.6515ZM40.5498 84.0983H69.051V42.5512H40.5498V84.0983ZM66.7776 81.8192H42.8232V44.8303H66.7776V81.8192ZM43.373 81.268H66.2258V45.3835H43.373V81.268Z" fill="#1E2246"/>
<path d="M168.621 48.5981L159.788 74.9538L150.648 48.7832L150.584 48.5981H144.793V84.0904H149.334V64.4876C149.334 62.1522 149.135 59.1086 148.955 56.389L157.87 83.8993L157.932 84.0904H161.277L170.128 56.4453C169.929 59.1207 169.731 62.1682 169.731 64.4876V84.0904H174.414V48.5981H168.621Z" fill="#1E2246"/>
<path d="M137.201 48.5981L129.257 64.6204L121.487 48.5981H116.172L126.787 70.3111V84.0904H131.755V70.3111L142.372 48.5981H137.201Z" fill="#1E2246"/>
</g>
<defs>
<clipPath id="clip0_807_676">
<rect width="162" height="49" fill="white" transform="translate(40 42)"/>
</clipPath>
</defs>
</svg>
